<svg width="28" height="16" viewBox="0 0 28 16" fill="none" xmlns="http://www.w3.org/2000/svg">
<path d="M10.2217 1.38916C12.9953 1.38916 15.3714 3.09732 16.3525 5.521L16.4785 5.8335H16.8887C19.5579 5.83353 21.7215 7.99732 21.7217 10.6665C21.7217 13.3358 19.558 15.5005 16.8887 15.5005H4.44434C2.26607 15.5005 0.500224 13.7344 0.5 11.5562C0.5 9.79077 1.66003 8.29427 3.26074 7.7915L3.43262 7.73779L3.53027 7.5874L3.56836 7.52783L3.63379 7.42725L3.64648 7.30811C3.99231 3.98268 6.80454 1.3892 10.2217 1.38916Z" fill="white"/>
<path d="M10.2217 1.38916C12.9953 1.38916 15.3714 3.09732 16.3525 5.521L16.4785 5.8335H16.8887C19.5579 5.83353 21.7215 7.99732 21.7217 10.6665C21.7217 13.3358 19.558 15.5005 16.8887 15.5005H4.44434C2.26607 15.5005 0.500224 13.7344 0.5 11.5562C0.5 9.79077 1.66003 8.29427 3.26074 7.7915L3.43262 7.73779L3.53027 7.5874L3.56836 7.52783L3.63379 7.42725L3.64648 7.30811C3.99231 3.98268 6.80454 1.3892 10.2217 1.38916Z" stroke="white"/>
<path d="M10.2217 1.38916C12.9953 1.38916 15.3714 3.09732 16.3525 5.521L16.4785 5.8335H16.8887C19.5579 5.83353 21.7215 7.99732 21.7217 10.6665C21.7217 13.3358 19.558 15.5005 16.8887 15.5005H4.44434C2.26607 15.5005 0.500224 13.7344 0.5 11.5562C0.5 9.79077 1.66003 8.29427 3.26074 7.7915L3.43262 7.73779L3.53027 7.5874L3.56836 7.52783L3.63379 7.42725L3.64648 7.30811C3.99231 3.98268 6.80454 1.3892 10.2217 1.38916Z" stroke="white"/>
<path d="M10.2217 1.38916C12.9953 1.38916 15.3714 3.09732 16.3525 5.521L16.4785 5.8335H16.8887C19.5579 5.83353 21.7215 7.99732 21.7217 10.6665C21.7217 13.3358 19.558 15.5005 16.8887 15.5005H4.44434C2.26607 15.5005 0.500224 13.7344 0.5 11.5562C0.5 9.79077 1.66003 8.29427 3.26074 7.7915L3.43262 7.73779L3.53027 7.5874L3.56836 7.52783L3.63379 7.42725L3.64648 7.30811C3.99231 3.98268 6.80454 1.3892 10.2217 1.38916Z" stroke="white"/>
<path d="M21.6406 0.5C23.1872 0.500058 24.4282 0.921176 25.2744 1.64941C26.1114 2.36984 26.6104 3.43213 26.6104 4.82715C26.6102 6.80639 25.9264 8.4283 24.4082 9.30664L24.1191 9.36816C23.6031 5.47581 20.335 3.90645 18.5254 3.54883L18.0107 2.75098L17.9834 2.70801L17.9463 2.6709L17.5645 2.28418C18.5555 1.19297 20.0118 0.5 21.6406 0.5Z" fill="white" stroke="white"/>
</svg>
