<svg width="356" height="77" viewBox="0 0 356 77" fill="none" xmlns="http://www.w3.org/2000/svg">
<path d="M229.483 61.6823C238.983 61.6823 246.684 53.9811 246.684 44.4813H229.483V27.2803C219.983 27.2803 212.282 34.9814 212.282 44.4813C212.282 53.9811 219.983 61.6823 229.483 61.6823Z" fill="#1E1E1E"/>
<path d="M14.2727 62L1.52273 15.4545H5.84091L16.3864 55.4773H16.75L27.2955 15.4545H32.2045L42.75 55.4773H43.1136L53.6591 15.4545H58L45.25 62H40.7045L29.9091 22.5227H29.6136L18.8182 62H14.2727ZM64.8864 62V27.0909H68.9545V62H64.8864ZM66.9545 21.0909C66.1212 21.0909 65.4091 20.8106 64.8182 20.25C64.2273 19.6742 63.9318 18.9848 63.9318 18.1818C63.9318 17.3788 64.2273 16.697 64.8182 16.1364C65.4091 15.5606 66.1212 15.2727 66.9545 15.2727C67.7879 15.2727 68.5 15.5606 69.0909 16.1364C69.6818 16.697 69.9773 17.3788 69.9773 18.1818C69.9773 18.9848 69.6818 19.6742 69.0909 20.25C68.5 20.8106 67.7879 21.0909 66.9545 21.0909ZM83.6989 15.4545V62H79.6534V15.4545H83.6989ZM106.972 62.7273C104.108 62.7273 101.6 61.9697 99.4489 60.4545C97.2973 58.9394 95.6155 56.8258 94.4034 54.1136C93.2064 51.4015 92.608 48.2424 92.608 44.6364C92.608 41.0455 93.2064 37.9015 94.4034 35.2045C95.6155 32.4924 97.3049 30.3864 99.4716 28.8864C101.638 27.3712 104.161 26.6136 107.04 26.6136C109.161 26.6136 110.926 26.9924 112.335 27.75C113.744 28.4924 114.873 29.4167 115.722 30.5227C116.57 31.6288 117.229 32.7045 117.699 33.75H118.062V15.4545H122.131V62H118.176V55.5227H117.699C117.229 56.5833 116.563 57.6742 115.699 58.7955C114.835 59.9015 113.691 60.8333 112.267 61.5909C110.858 62.3485 109.093 62.7273 106.972 62.7273ZM107.449 59.0227C109.706 59.0227 111.631 58.4091 113.222 57.1818C114.813 55.9394 116.025 54.2348 116.858 52.0682C117.706 49.8864 118.131 47.3864 118.131 44.5682C118.131 41.7803 117.714 39.3182 116.881 37.1818C116.047 35.0303 114.835 33.3485 113.244 32.1364C111.653 30.9091 109.722 30.2955 107.449 30.2955C105.116 30.2955 103.146 30.9318 101.54 32.2045C99.9489 33.4621 98.7367 35.1667 97.9034 37.3182C97.0852 39.4697 96.6761 41.8864 96.6761 44.5682C96.6761 47.2803 97.0928 49.7273 97.9261 51.9091C98.7595 54.0909 99.9716 55.8258 101.562 57.1136C103.169 58.3864 105.131 59.0227 107.449 59.0227ZM188.949 30H184.676C184.358 28.4091 183.782 26.9394 182.949 25.5909C182.131 24.2273 181.1 23.0379 179.858 22.0227C178.616 21.0076 177.206 20.2197 175.631 19.6591C174.055 19.0985 172.35 18.8182 170.517 18.8182C167.578 18.8182 164.896 19.5833 162.472 21.1136C160.063 22.6439 158.131 24.8939 156.676 27.8636C155.237 30.8182 154.517 34.4394 154.517 38.7273C154.517 43.0455 155.237 46.6818 156.676 49.6364C158.131 52.5909 160.063 54.8333 162.472 56.3636C164.896 57.8788 167.578 58.6364 170.517 58.6364C172.35 58.6364 174.055 58.3561 175.631 57.7955C177.206 57.2348 178.616 56.4545 179.858 55.4545C181.1 54.4394 182.131 53.25 182.949 51.8864C183.782 50.5227 184.358 49.0455 184.676 47.4545H188.949C188.57 49.5909 187.858 51.5833 186.812 53.4318C185.782 55.2652 184.464 56.8712 182.858 58.25C181.267 59.6288 179.434 60.7045 177.358 61.4773C175.282 62.25 173.002 62.6364 170.517 62.6364C166.608 62.6364 163.138 61.6591 160.108 59.7045C157.078 57.7348 154.699 54.9621 152.972 51.3864C151.259 47.8106 150.403 43.5909 150.403 38.7273C150.403 33.8636 151.259 29.6439 152.972 26.0682C154.699 22.4924 157.078 19.7273 160.108 17.7727C163.138 15.803 166.608 14.8182 170.517 14.8182C173.002 14.8182 175.282 15.2045 177.358 15.9773C179.434 16.7348 181.267 17.8106 182.858 19.2045C184.464 20.5833 185.782 22.1894 186.812 24.0227C187.858 25.8561 188.57 27.8485 188.949 30ZM202.136 15.4545V62H198.091V15.4545H202.136Z" fill="white"/>
<path d="M271.977 62.7273C268.856 62.7273 266.136 61.947 263.818 60.3864C261.515 58.8258 259.727 56.6894 258.455 53.9773C257.182 51.2652 256.545 48.1742 256.545 44.7045C256.545 41.2045 257.189 38.0909 258.477 35.3636C259.78 32.6364 261.583 30.5 263.886 28.9545C266.189 27.3939 268.864 26.6136 271.909 26.6136C274.242 26.6136 276.356 27.0682 278.25 27.9773C280.144 28.8712 281.705 30.1364 282.932 31.7727C284.174 33.3939 284.955 35.2879 285.273 37.4545H281.182C280.758 35.4848 279.735 33.803 278.114 32.4091C276.508 31 274.462 30.2955 271.977 30.2955C269.75 30.2955 267.78 30.9015 266.068 32.1136C264.356 33.3106 263.015 34.9848 262.045 37.1364C261.091 39.2727 260.614 41.75 260.614 44.5682C260.614 47.4015 261.083 49.9091 262.023 52.0909C262.962 54.2576 264.28 55.9545 265.977 57.1818C267.689 58.4091 269.689 59.0227 271.977 59.0227C273.523 59.0227 274.932 58.7348 276.205 58.1591C277.492 57.5682 278.568 56.7348 279.432 55.6591C280.311 54.5833 280.902 53.303 281.205 51.8182H285.295C284.992 53.9242 284.242 55.803 283.045 57.4545C281.864 59.0909 280.326 60.3788 278.432 61.3182C276.553 62.2576 274.402 62.7273 271.977 62.7273ZM297.648 48.8182L297.602 43.5227H298.511L314.875 27.0909H319.989L303.83 43.2727L303.466 43.3409L297.648 48.8182ZM293.966 62V15.4545H298.011V62H293.966ZM315.716 62L301.534 44.0682L304.443 41.2727L320.898 62H315.716ZM351.045 34.75L347.341 35.7955C346.977 34.75 346.462 33.803 345.795 32.9545C345.129 32.1061 344.258 31.4318 343.182 30.9318C342.121 30.4318 340.803 30.1818 339.227 30.1818C336.864 30.1818 334.924 30.7424 333.409 31.8636C331.894 32.9848 331.136 34.4318 331.136 36.2045C331.136 37.7045 331.652 38.9242 332.682 39.8636C333.727 40.7879 335.333 41.5227 337.5 42.0682L342.773 43.3636C345.697 44.0758 347.886 45.2045 349.341 46.75C350.811 48.2955 351.545 50.2348 351.545 52.5682C351.545 54.5379 351 56.2879 349.909 57.8182C348.818 59.3485 347.295 60.553 345.341 61.4318C343.402 62.2955 341.152 62.7273 338.591 62.7273C335.182 62.7273 332.371 61.9621 330.159 60.4318C327.947 58.8864 326.53 56.6591 325.909 53.75L329.795 52.7955C330.295 54.8712 331.273 56.4394 332.727 57.5C334.197 58.5606 336.129 59.0909 338.523 59.0909C341.205 59.0909 343.348 58.4924 344.955 57.2955C346.561 56.0833 347.364 54.5682 347.364 52.75C347.364 51.3409 346.894 50.1591 345.955 49.2045C345.015 48.2348 343.591 47.5227 341.682 47.0682L335.977 45.7045C332.947 44.9773 330.705 43.8258 329.25 42.25C327.795 40.6742 327.068 38.7197 327.068 36.3864C327.068 34.4621 327.591 32.7727 328.636 31.3182C329.682 29.8485 331.121 28.697 332.955 27.8636C334.788 27.0303 336.879 26.6136 339.227 26.6136C342.424 26.6136 344.977 27.3409 346.886 28.7955C348.811 30.2348 350.197 32.2197 351.045 34.75Z" fill="white"/>
<circle cx="229.5" cy="44.5" r="16.5" fill="#D9D9D9"/>
<circle cx="230" cy="44" r="16.5" fill="#1E1E1E" stroke="#88DED0" stroke-width="3"/>
<path d="M229.5 43.5H214.031C214.528 35.1838 221.184 28.5274 229.5 28.0303V43.5Z" fill="#88DED0" stroke="#88DED0" stroke-width="2"/>
</svg>
