<svg width="24" height="18" viewBox="0 0 24 18" fill="none" xmlns="http://www.w3.org/2000/svg">
<path d="M17.9973 16.9996H18.5178L19.4624 16.9998H19.9828C21.5442 16.3019 24.242 14.2275 22.7847 10.4591C20.9674 6.69069 19.8191 5.2252 19.4722 4.96351H19.4624L18.508 4.96338C18.161 5.22507 17.0127 6.69056 15.1955 10.459C13.7382 14.2274 16.4359 16.3018 17.9973 16.9996Z" fill="white"/>
<path d="M19.4722 4.96351C19.8191 5.2252 20.9674 6.69069 22.7847 10.4591C24.242 14.2275 21.5442 16.3019 19.9828 16.9998H19.4624L18.5178 16.9996H17.9973C16.4359 16.3018 13.7382 14.2274 15.1955 10.459C17.0127 6.69056 18.161 5.22507 18.508 4.96338L19.4722 4.96351ZM19.4722 4.96351H19.4624" stroke="white"/>
<path d="M1 3.35606C2.33738 4.24758 6.10438 5.74825 9.69295 3.35606C15.2716 -0.362727 17.9773 1.28073 19.9407 1.89569" stroke="white" stroke-width="1.5" stroke-linecap="round"/>
<path d="M1 12.2717C2.33738 13.1633 6.10438 14.6641 9.69295 12.2717C10.6686 11.6213 11.5564 11.1349 12.3677 10.7783" stroke="white" stroke-width="1.5" stroke-linecap="round"/>
<path d="M1 7.69453C2.33738 8.58611 6.10438 10.0869 9.69295 7.69453C11.7077 6.3514 13.3477 5.70771 14.7133 5.4624" stroke="white" stroke-width="1.5" stroke-linecap="round"/>
</svg>
