<svg width="27" height="22" viewBox="0 0 27 22" fill="none" xmlns="http://www.w3.org/2000/svg">
<path d="M0 11.3375C0.000263557 13.7664 2.07794 15.7359 4.64088 15.7359H13.9173L14.1753 15.7359C13.5 13 13.4362 11.5803 13.5 9.69806C13.6305 5.84828 16.5937 3.77147 18.2755 3.23269C17.1543 1.07756 14.9119 -1.7055e-05 11.4385 0C7.41787 4.46051e-05 4.10902 2.89209 3.70212 6.60035L3.68719 6.7332L3.61021 6.84536L3.56539 6.91179L3.4505 7.07949L3.24826 7.13938C1.36488 7.70003 0 9.36881 0 11.3375Z" fill="white"/>
<path d="M21.6251 4.50488C22.5348 4.59568 23.7252 4.96422 24.7569 5.81055C25.9544 6.79312 26.9017 8.39099 26.9757 10.8359C27.0491 13.2657 26.2094 15.6008 25.1573 17.5137C24.1043 19.4281 22.8163 20.961 21.9376 21.7969L21.793 21.9346H20.5255L20.3809 21.7969C19.5022 20.9611 18.2144 19.4283 17.1612 17.5137C16.1091 15.6008 15.2694 13.2658 15.3429 10.8359C15.4168 8.39085 16.364 6.7931 17.5616 5.81055C18.7406 4.8435 20.1267 4.5003 21.0645 4.48242H21.254L21.6251 4.50488ZM21.1593 7.65039C19.5769 7.65039 18.2942 9.04385 18.294 10.7627C18.294 12.4817 19.5768 13.876 21.1593 13.876C22.7416 13.8757 24.0245 12.4815 24.0245 10.7627C24.0243 9.044 22.7415 7.65062 21.1593 7.65039Z" fill="white"/>
</svg>
