<svg width="29" height="22" viewBox="0 0 29 22" fill="none" xmlns="http://www.w3.org/2000/svg">
<path d="M0 11.2563C0.000283294 13.6678 2.23355 15.6231 4.98842 15.6231H14.9595L15.2369 15.6231C14.511 12.9069 14.4424 11.4973 14.511 9.62857C14.6513 5.80638 17.8364 3.74445 19.6442 3.20952C18.439 1.06984 16.0286 -1.69328e-05 12.2951 0C7.97337 4.42855e-05 4.41674 2.87137 3.97936 6.55306L3.96331 6.68496L3.88057 6.79632L3.83239 6.86227L3.70889 7.02877L3.49152 7.08823C1.46709 7.64487 0 9.30169 0 11.2563Z" fill="white"/>
<path d="M22.7376 4.46964C23.702 4.55865 24.9705 4.91965 26.0725 5.75479C27.353 6.72542 28.3784 8.31486 28.4583 10.7577C28.5374 13.1812 27.6304 15.5057 26.4993 17.4052C25.3665 19.3074 23.9832 20.8288 23.0403 21.6571L22.8987 21.7812H21.5891L21.4475 21.6571C20.5047 20.8288 19.1203 19.3073 17.9876 17.4052C16.8565 15.5058 15.9494 13.1811 16.0286 10.7577C16.1085 8.31448 17.1345 6.72538 18.4153 5.75479C19.6749 4.80038 21.1507 4.4647 22.1428 4.44717H22.344L22.7376 4.46964ZM22.2434 7.59561C20.5426 7.59561 19.1636 8.97896 19.1634 10.6855C19.1634 12.3921 20.5424 13.7763 22.2434 13.7763C23.9444 13.7762 25.3235 12.3921 25.3235 10.6855C25.3233 8.97899 23.9442 7.59566 22.2434 7.59561Z" fill="white"/>
</svg>
