<svg width="13" height="17" viewBox="0 0 13 17" fill="none" xmlns="http://www.w3.org/2000/svg">
<path d="M5.20389 15.9998H5.88339L7.11661 16H7.79611C9.83459 15.1303 13.3567 12.5451 11.4541 7.84887C9.08154 3.15261 7.58239 1.32629 7.1294 1.00016H7.11661L5.8706 1C5.41761 1.32613 3.91846 3.15245 1.54587 7.84871C-0.356719 12.545 3.16541 15.1302 5.20389 15.9998Z" fill="white"/>
<path d="M7.1294 1.00016C7.58239 1.32629 9.08154 3.15261 11.4541 7.84887C13.3567 12.5451 9.83459 15.1303 7.79611 16H7.11661L5.88339 15.9998H5.20389C3.16541 15.1302 -0.356719 12.545 1.54587 7.84871C3.91846 3.15245 5.41761 1.32613 5.8706 1L7.1294 1.00016ZM7.1294 1.00016H7.11661" stroke="white"/>
</svg>
