<svg width="138" height="193" viewBox="0 0 138 193" fill="none" xmlns="http://www.w3.org/2000/svg">
<path d="M17.3508 1.26054L84.7099 55.1479L125.129 87.3305C125.503 87.7047 132.688 93.3928 132.988 93.6922C133.287 93.9916 137.852 97.8086 137.478 104.545V179.014C137.478 182.008 135.981 183.754 135.233 184.253L135.233 184.253C133.736 185.251 131.865 186.498 127 189.866C123.258 193.234 120.638 191.987 119.516 190.989C83.4658 161.925 10.2431 102.898 5.75248 99.3055C1.26187 95.713 0.387055 91.0727 0.510972 89.2016V42.4244C0.510972 33.069 0.509946 14.0587 0.510972 12.8613C0.513536 9.86751 2.00784 9.36855 2.75628 8.37064C3.50471 7.87169 6.04939 6.12537 10.2406 3.13163C14.7337 -0.610554 16.3528 0.512107 17.3508 1.26054Z" fill="white" stroke="black"/>
<path d="M0.515625 12.1128C1.26406 9.86746 3.7339 6.12529 7.62576 9.11903C11.5176 12.1128 85.3383 71.4887 121.762 100.802C123.508 101.925 127.001 105.742 127.001 112.029C127.001 118.316 127.001 165.043 127.001 187.621C127.001 189.492 125.729 191.064 125.13 191.363" stroke="black"/>
</svg>
